# AST/ASF file generated using VICON BodyLanguage
# -----------------------------------------------
:version 1.10
:name VICON
:units
  mass 1.0
  length 0.45
  angle deg
:documentation
   .ast/.asf automatically generated from VICON data using
   VICON BodyBuilder and BodyLanguage model FoxedUp or BRILLIANT.MOD
:root
   order TX TY TZ RX RY RZ
   axis XYZ
   position 0 0 0  
   orientation 0 0 0 
:bonedata
  begin
     id 1 
     name lhipjoint
     direction 0.528046 -0.759594 0.379717 
     length 2.39752 
     axis 0 0 0  XYZ
  end
  begin
     id 2 
     name lfemur
     direction 0.34202 -0.939693 0  
     length 7.31175  
     axis 0 0 20  XYZ
    dof rx ry rz
    limits (-160.0 20.0)
           (-70.0 70.0)
           (-60.0 70.0)
  end
  begin
     id 3 
     name ltibia
     direction 0.34202 -0.939693 0   
     length 7.52482   
     axis 0 0 20   XYZ
    dof rx
    limits (-10.0 170.0)
  end
  begin
     id 4 
     name lfoot
     direction 0.0675379 -0.185559 0.980309   
     length 2.00961   
     axis -90 7.62852e-016 20   XYZ
    dof rx rz
    limits (-45.0 90.0)
           (-70.0 20.0)
  end
  begin
     id 5 
     name ltoes
     direction 1.5352e-011 -4.22286e-011 1   
     length 1.01383   
     axis -90 7.62852e-016 20   XYZ
    dof rx
    limits (-90.0 20.0)
  end
  begin
     id 6 
     name rhipjoint
     direction -0.510274 -0.769251 0.384544   
     length 2.36742  
     axis 0 0 0  XYZ 
  end
  begin
     id 7 
     name rfemur
     direction -0.34202 -0.939693 0   
     length 7.45325   
     axis 0 0 -20   XYZ
    dof rx ry rz
    limits (-160.0 20.0)
           (-70.0 70.0)
           (-70.0 60.0)
  end
  begin
     id 8 
     name rtibia
     direction -0.34202 -0.939693 0   
     length 7.49587   
     axis 0 0 -20   XYZ
    dof rx
    limits (-10.0 170.0)
 end
 begin
     id 9 
     name rfoot
     direction -0.106475 -0.292536 0.950308   
     length 2.20898  
     axis -90 -7.62852e-016 -20   XYZ
    dof rx rz
    limits (-45.0 90.0)
           (-20.0 70.0)
  end
  begin
     id 10 
     name rtoes
     direction -1.53597e-011 -4.22023e-011 1   
     length 1.10065   
     axis -90 -7.62852e-016 -20   XYZ
    dof rx
    limits (-90.0 20.0)
  end
  begin
     id 11 
     name lowerback
     direction 0.0260024 0.998026 -0.0571652   
     length 2.11214   
     axis 0 0 0   XYZ
    dof rx ry rz
    limits (-20.0 45.0)
           (-30.0 30.0)
           (-30.0 30.0)
  end
  begin
     id 12 
     name upperback
     direction 0.0216202 0.999542 -0.0211766   
     length 2.11689   
     axis 0 0 0   XYZ
    dof rx ry rz
    limits (-20.0 45.0)
           (-30.0 30.0)
           (-30.0 30.0)
  end
  begin
     id 13 
     name thorax
     direction 0.00883312 0.999944 0.00589057   
     length 2.11821   
     axis 0 0 0   XYZ
    dof rx ry rz
    limits (-20.0 45.0)
           (-30.0 30.0)
           (-30.0 30.0)
  end
  begin
     id 14 
     name lowerneck
     direction -0.059386 0.994433 0.0870401   
     length 1.81176   
     axis 0 0 0   XYZ
    dof rx ry rz
    limits (-20.0 45.0)
           (-30.0 30.0)
           (-30.0 30.0)
  end
  begin
     id 15 
     name upperneck
     direction 0.0506457 0.97328 -0.223967   
     length 1.82382   
     axis 0 0 0   XYZ
    dof rx ry rz
    limits (-20.0 45.0)
           (-30.0 30.0)
           (-30.0 30.0)
  end
  begin
     id 16
     name head
     direction 0.0205902 0.996147 -0.0852487  
     length 1.84805  
     axis 0 0 0   XYZ
    dof rx ry rz
    limits (-20.0 45.0)
           (-30.0 30.0)
           (-30.0 30.0)
  end
  begin
     id 17 
     name lclavicle
     direction 0.949493 0.303881 -0.0782325  
     length 3.60584  
     axis 0 0 0   XYZ
    dof ry rz
    limits (-20.0 10.0)
           (0.0 20.0)
  end
  begin
     id 18 
     name lhumerus
     direction 1 -4.48965e-011 1.48782e-027   
     length 4.95681   
     axis 180 -30 -90   XYZ
    dof rx ry rz
    limits (-60.0 90.0)
           (-90.0 90.0)
           (-90.0 90.0)
  end
  begin
     id 19
     name lradius
     direction 1 -4.48952e-011 2.06528e-027   
     length 3.40915   
     axis 180 -30 -90   XYZ
    dof rx
    limits (-10.0 170.0)
  end
  begin
     id 20
     name lwrist
     direction 1 -4.48964e-011 1.28021e-027   
     length 1.70457   
     axis -1.61767e-015 90 90   XYZ
    dof ry
    limits (-180.0 0.0)
 end
  begin
     id 21 
     name lhand
     direction 1 -4.49094e-011 2.54887e-027   
     length 0.616403   
     axis -1.63363e-015 90 90   XYZ
    dof rx rz
    limits (-90.0 90.0)
           (-45.0 45.0)
  end
  begin
     id 22 
     name lfingers
     direction 1 -4.49002e-011 5.11407e-027   
     length 0.49696   
     axis -3.26723e-015 90 90   XYZ
    dof rx
    limits (0.0 90.0)
  end
  begin
     id 23
     name lthumb
     direction 0.707107 -6.34998e-011 0.707107   
     length 0.713539   
     axis -90 45 -2.25915e-014   XYZ
    dof rx rz
    limits (-45.0 45.0)
           (-45.0 45.0)
  end
  begin
     id 24 
     name rclavicle
     direction -0.937751 0.334612 -0.0930482   
     length 3.46287  
     axis 0 0 0   XYZ 
    dof ry rz
    limits (-10.0 20.0)
           (-20.0 0.0)
  end
  begin
     id 25 
     name rhumerus
     direction -1 -4.48962e-011 3.59972e-027  
     length 5.352   
     axis 180 30 90   XYZ
    dof rx ry rz
    limits (-90.0 60.0)
           (-90.0 90.0)
           (-90.0 90.0)
  end
  begin
     id 26 
     name rradius
     direction -1 -4.48987e-011 -3.76925e-027   
     length 3.43721   
     axis 180 30 90   XYZ
    dof rx
    limits (-10.0 170.0)
  end
  begin
     id 27 
     name rwrist
     direction -1 -4.48943e-011 1.28112e-027   
     length 1.7186   
     axis -1.61767e-015 -90 -90   XYZ
    dof ry
    limits (-180.0 0.0)
  end
  begin
     id 28
     name rhand
     direction -1 -4.49027e-011 2.55483e-027   
     length 0.72009   
     axis -1.63363e-015 -90 -90   XYZ
    dof rx rz
    limits (-90.0 90.0)
           (-45.0 45.0)
  end
  begin
     id 29
     name rfingers
     direction -1 -4.48827e-011 5.14506e-027   
     length 0.580555   
     axis -3.26723e-015 -90 -90   XYZ
    dof rx
    limits (0.0 90.0)
  end
  begin
     id 30
     name rthumb
     direction -0.707107 -6.34936e-011 0.707107   
     length 0.833564   
     axis -90 -45 2.25915e-014   XYZ
    dof rx rz
    limits (-45.0 45.0)
           (-45.0 45.0)
  end
:hierarchy
  begin
    root lhipjoint rhipjoint lowerback
    lhipjoint lfemur
    lfemur ltibia
    ltibia lfoot
    lfoot ltoes
    rhipjoint rfemur
    rfemur rtibia
    rtibia rfoot
    rfoot rtoes
    lowerback upperback
    upperback thorax
    thorax lowerneck lclavicle rclavicle
    lowerneck upperneck
    upperneck head
    lclavicle lhumerus
    lhumerus lradius
    lradius lwrist
    lwrist lhand lthumb
    lhand lfingers
    rclavicle rhumerus
    rhumerus rradius
    rradius rwrist
    rwrist rhand rthumb
    rhand rfingers
  end

#!OML:ASF H:\Terrain\Patient Classification 1\Terrain2\Thursday\justin.ASF
:FULLY-SPECIFIED
:DEGREES
233
root -4.71667 23.8067 -0.821147 -136.318 85.9517 -136.518
lowerback 8.56201 -0.629701 -2.99558
upperback 3.05342 -0.937848 2.13403
thorax -1.54636 -0.447519 3.98717
lowerneck -13.8843 -2.73925 -9.14283
upperneck 40.2831 -0.930829 4.22649
head 17.1601 -0.609137 3.58292
rclavicle -9.20452e-015 6.01362e-015
rhumerus -30.0765 -6.60161 -80.9551
rradius 33.3593
rwrist -13.1851
rhand -21.9712 14.1557
rfingers 7.12502
rthumb 4.43658 -15.7779
lclavicle -9.20452e-015 6.01362e-015
lhumerus -28.793 -1.36798 86.3524
lradius 33.8266
lwrist 4.58921
lhand -18.9485 20.6321
lfingers 7.12502
lthumb 7.35488 50.4842
rfemur -21.4187 -5.57653 23.0799
rtibia 36.4329
rfoot -14.8475 1.31486
rtoes 6.71768
lfemur -10.9464 -1.46564 -19.4629
ltibia 28.0461
lfoot -11.127 -13.1698
ltoes 33.2288
234
root -4.66332 23.8033 -0.808393 -138.196 86.1241 -138.398
lowerback 8.46757 -0.659769 -3.40852
upperback 2.95861 -1.01062 2.24784
thorax -1.57473 -0.485287 4.34668
lowerneck -13.5308 -2.58976 -8.13702
upperneck 40.225 -0.747893 3.46302
head 16.9979 -0.477052 3.07844
rclavicle 3.19174e-014 -2.78795e-014
rhumerus -30.1432 -6.04527 -80.9896
rradius 32.9755
rwrist -12.8748
rhand -21.9061 14.1247
rfingers 7.12502
rthumb 4.49947 -15.8075
lclavicle 3.19174e-014 -2.78795e-014
lhumerus -29.079 -0.889438 86.4459
lradius 33.8333
lwrist 4.27141
lhand -18.2628 20.2718
lfingers 7.12502
lthumb 8.01671 50.0998
rfemur -21.2733 -5.4565 22.9056
rtibia 36.5281
rfoot -14.5435 1.71666
rtoes 12.1439
lfemur -10.6255 -1.2321 -19.5851
ltibia 27.8144
lfoot -11.2931 -13.6222
ltoes 32.8366
235
root -4.60668 23.7971 -0.800086 -137.406 86.185 -137.513
lowerback 8.37841 -0.674034 -3.37457
upperback 2.92721 -1.02571 2.26718
thorax -1.55688 -0.493311 4.34754
lowerneck -13.2959 -2.53131 -8.03214
upperneck 40.0386 -0.685679 3.35441
head 16.827 -0.447327 3.01014
rclavicle -9.08819e-015 -1.88845e-015
rhumerus -30.2757 -5.86375 -81.0725
rradius 32.6312
rwrist -12.317
rhand -21.3856 13.8026
rfingers 7.12502
rthumb 5.00201 -16.1184
lclavicle -9.08819e-015 -1.88845e-015
lhumerus -29.3387 -0.75549 86.463
lradius 33.9161
lwrist 4.08964
lhand -17.9477 20.5214
lfingers 7.12502
lthumb 8.32083 50.3375
rfemur -20.9437 -5.32125 22.9471
rtibia 36.5178
rfoot -14.408 1.86901
rtoes 16.2434
lfemur -10.2037 -1.07794 -19.5398
ltibia 27.6599
lfoot -11.3317 -13.7574
ltoes 32.9925
236
root -4.54869 23.7863 -0.794811 -136.819 86.1359 -136.846
lowerback 8.20246 -0.617297 -2.95372
upperback 2.92291 -0.916857 2.15308
thorax -1.48542 -0.4391 3.97598
lowerneck -13.2139 -2.60866 -8.33556
upperneck 39.9917 -0.847887 3.68713
head 16.7999 -0.512274 3.18508
rclavicle 1.01256e-014 -5.56597e-015
rhumerus -30.5002 -6.23471 -81.1104
rradius 32.3409
rwrist -11.8158
rhand -20.5446 13.8811
rfingers 7.12502
rthumb 5.81402 -16.0191
lclavicle 1.01256e-014 -5.56597e-015
lhumerus -29.5119 -0.964796 86.4605
lradius 33.9806
lwrist 4.02475
lhand -17.9031 20.7456
lfingers 7.12502
lthumb 8.36389 50.56
rfemur -20.5743 -5.40465 23.0632
rtibia 36.3811
rfoot -14.2651 1.95202
rtoes 18.4315
lfemur -9.84918 -1.03124 -19.5041
ltibia 27.6064
lfoot -11.3537 -13.5721
ltoes 33.0324
237
root -4.49081 23.7821 -0.787181 -138.561 86.1948 -138.67
lowerback 7.9175 -0.576972 -2.91574
upperback 2.85248 -0.859153 2.13291
thorax -1.40709 -0.41241 3.9238
lowerneck -13.1968 -2.65729 -8.15703
upperneck 40.1459 -0.901345 3.55215
head 16.8824 -0.521817 3.09113
rclavicle 7.72775e-015 -1.33186e-014
rhumerus -30.6634 -6.24709 -81.0807
rradius 31.9839
rwrist -11.4273
rhand -20.3439 14.0283
rfingers 7.12502
rthumb 6.0078 -15.8665
lclavicle 7.72775e-015 -1.33186e-014
lhumerus -29.8624 -1.08684 86.705
lradius 34.1865
lwrist 4.1472
lhand -18.1729 21.0735
lfingers 7.12502
lthumb 8.10345 50.8982
rfemur -20.3318 -5.47981 22.9697
rtibia 36.1778
rfoot -14.1933 2.04675
rtoes 20.4935
lfemur -9.69145 -1.47871 -19.6001
ltibia 27.6243
lfoot -11.7819 -13.4655
ltoes 32.4872
238
root -4.43005 23.7783 -0.77794 -139.527 86.2416 -139.834
lowerback 7.51677 -0.546502 -2.95586
upperback 2.7296 -0.818393 2.18073
thorax -1.31457 -0.394991 3.98722
lowerneck -12.825 -2.66782 -7.23542
upperneck 39.9747 -0.925562 2.75889
head 16.6771 -0.492665 2.55351
rclavicle -1.27222e-014 -7.05686e-015
rhumerus -30.8813 -6.13572 -81.0367
rradius 31.7623
rwrist -10.8937
rhand -20.4943 14.0663
rfingers 7.12502
rthumb 5.86256 -15.8326
lclavicle -1.27222e-014 -7.05686e-015
lhumerus -30.3023 -1.32068 86.9953
lradius 34.3909
lwrist 4.41348
lhand -18.5254 21.3921
lfingers 7.12502
lthumb 7.76327 51.2296
rfemur -20.1817 -5.60899 22.9439
rtibia 35.9567
rfoot -14.3548 2.10894
rtoes 21.2435
lfemur -9.68403 -1.46566 -19.5858
ltibia 27.6455
lfoot -12.0293 -13.89
ltoes 31.9909
239
root -4.36785 23.7695 -0.763274 -139.134 86.2986 -139.559
lowerback 7.1409 -0.506716 -2.96493
upperback 2.66507 -0.762262 2.19375
thorax -1.17775 -0.37067 3.99584
lowerneck -13.2111 -2.84351 -8.81449
upperneck 40.2248 -1.0229 3.70125
head 16.9593 -0.65039 3.26107
rclavicle -7.00716e-015 -5.06901e-015
rhumerus -31.1274 -6.02039 -81.0897
rradius 31.7728
rwrist -10.5462
rhand -20.0095 13.9628
rfingers 7.12502
rthumb 6.33067 -15.9226
lclavicle -7.00716e-015 -5.06901e-015
lhumerus -30.556 -1.44663 87.0454
lradius 34.3395
lwrist 4.52436
lhand -18.5357 21.4087
lfingers 7.12502
lthumb 7.75327 51.2465
rfemur -19.9304 -5.62794 23.0051
rtibia 35.7068
rfoot -14.583 2.05826
rtoes 21.1551
lfemur -9.62157 -0.598821 -19.5163
ltibia 27.6461
lfoot -11.7875 -14.5981
ltoes 33.039
240
root -4.30784 23.7679 -0.748109 -140.632 86.2702 -141.008
lowerback 6.98514 -0.592909 -3.05168
upperback 2.62772 -0.879592 2.26645
thorax -1.11636 -0.431348 4.12754
lowerneck -12.8666 -2.70004 -8.27313
upperneck 39.9024 -0.789348 3.09159
head 16.662 -0.549793 2.90999
rclavicle 8.27441e-015 -1.58034e-014
rhumerus -31.3338 -5.45036 -81.1769
rradius 31.764
rwrist -10.5499
rhand -19.3431 13.5486
rfingers 7.12502
rthumb 6.974 -16.3165
lclavicle 8.27441e-015 -1.58034e-014
lhumerus -30.8578 -1.08333 87.0679
lradius 34.2758
lwrist 4.37517
lhand -18.3512 21.2493
lfingers 7.12502
lthumb 7.93136 51.0805
rfemur -19.5099 -5.61578 23.0091
rtibia 35.4759
rfoot -14.7727 1.73667
rtoes 21.0577
lfemur -9.32727 -0.15034 -19.5487
ltibia 27.5875
lfoot -11.676 -14.7729
ltoes 34.2072
241
root -4.24676 23.7768 -0.733676 -144.356 86.172 -144.689
lowerback 6.85635 -0.721021 -3.18597
upperback 2.56498 -1.05704 2.32821
thorax -1.08883 -0.521428 4.27962
lowerneck -12.8298 -2.6279 -8.58633
upperneck 40.0081 -0.64384 3.28226
head 16.704 -0.509311 3.08249
rclavicle -1.06847e-014 1.47101e-014
rhumerus -31.5583 -5.05019 -81.219
rradius 31.56
rwrist -10.1892
rhand -19.2506 13.5494
rfingers 7.12502
rthumb 7.06322 -16.3127
lclavicle -1.06847e-014 1.47101e-014
lhumerus -31.2048 -0.704553 87.1634
lradius 34.2008
lwrist 4.36415
lhand -18.3929 20.9626
lfingers 7.12502
lthumb 7.89113 50.7953
rfemur -19.0943 -5.55321 22.9279
rtibia 35.3025
rfoot -15.0395 1.18239
rtoes 20.4402
lfemur -8.9199 -0.744431 -19.6453
ltibia 27.4316
lfoot -12.0536 -14.3928
ltoes 33.5715
242
root -4.18746 23.7836 -0.718899 -147.837 86.2059 -148.239
lowerback 6.61299 -0.607875 -3.1357
upperback 2.48219 -0.907521 2.09541
thorax -1.05919 -0.447278 3.99409
lowerneck -12.7718 -2.75654 -8.54393
upperneck 40.1677 -0.953274 3.58588
head 16.8021 -0.584753 3.16799
rclavicle -1.00635e-015 -4.67144e-015
rhumerus -31.7841 -6.32692 -81.1514
rradius 30.8905
rwrist -8.83669
rhand -19.3281 14.1745
rfingers 7.12502
rthumb 6.98849 -15.6902
lclavicle -1.00635e-015 -4.67144e-015
lhumerus -31.4081 -1.42717 87.162
lradius 34.0291
lwrist 4.91742
lhand -18.427 20.7459
lfingers 7.12502
lthumb 7.85818 50.5799
rfemur -18.8495 -5.5363 22.756
rtibia 35.1701
rfoot -15.3044 0.988431
rtoes 18.8479
lfemur -8.6299 -1.40613 -19.7928
ltibia 27.2401
lfoot -12.5781 -14.0886
ltoes 32.1557
243
root -4.13364 23.7885 -0.701875 -149.181 86.2023 -149.748
lowerback 6.33811 -0.444112 -2.9176
upperback 2.37022 -0.680629 1.83582
thorax -1.04995 -0.333147 3.58159
lowerneck -12.8184 -2.93843 -8.1831
upperneck 40.4024 -1.34964 3.6893
head 16.9711 -0.674246 3.09501
rclavicle -4.8578e-015 3.97569e-016
rhumerus -31.9218 -7.9397 -81.0523
rradius 30.0571
rwrist -7.44211
rhand -19.1233 14.4764
rfingers 7.12502
rthumb 7.18618 -15.3816
lclavicle -4.8578e-015 3.97569e-016
lhumerus -31.6312 -2.44083 87.1335
lradius 33.94
lwrist 5.60523
lhand -18.5378 20.7289
lfingers 7.12502
lthumb 7.75128 50.5668
rfemur -18.7697 -5.51657 22.7233
rtibia 35.0784
rfoot -15.4802 1.04003
rtoes 17.7917
lfemur -8.51271 -1.69199 -19.8219
ltibia 27.0843
lfoot -12.9269 -13.9205
ltoes 31.454
244
root -4.08206 23.7883 -0.689666 -146.509 86.0535 -147.166
lowerback 6.16441 -0.519139 -2.70617
upperback 2.30035 -0.761628 2.04144
thorax -1.01886 -0.373367 3.67896
lowerneck -12.9926 -2.90293 -8.19819
upperneck 40.6427 -1.17843 3.51397
head 17.1365 -0.629992 3.06098
rclavicle -2.48481e-017 -1.18277e-014
rhumerus -31.8705 -7.78228 -80.9417
rradius 29.5884
rwrist -6.95281
rhand -19.2804 14.4182
rfingers 7.12502
rthumb 7.03444 -15.4449
lclavicle -2.48481e-017 -1.18277e-014
lhumerus -31.8422 -1.95295 87.2971
lradius 33.7702
lwrist 5.53808
lhand -18.8425 20.7214
lfingers 7.12502
lthumb 7.45721 50.57
rfemur -18.6171 -5.20733 23.0085
rtibia 35.0318
rfoot -15.6515 0.914909
rtoes 18.1293
lfemur -8.37964 -1.46215 -19.5478
ltibia 26.9951
lfoot -12.8871 -13.979
ltoes 32.2863
245
root -4.02927 23.7805 -0.680759 -141.564 85.9332 -142.163
lowerback 6.1087 -0.571021 -2.28843
upperback 2.26922 -0.799145 2.27971
thorax -1.01977 -0.389892 3.69173
lowerneck -12.8502 -2.80809 -8.07078
upperneck 40.6213 -0.956885 3.21033
head 17.0658 -0.557624 2.9363
rclavicle 3.2054e-015 -2.80286e-014
rhumerus -31.9503 -7.22545 -80.9431
rradius 29.4467
rwrist -6.96528
rhand -19.9215 14.5335
rfingers 7.12502
rthumb 6.41557 -15.3494
lclavicle 3.2054e-015 -2.80286e-014
lhumerus -32.1904 -1.85002 87.5748
lradius 33.8423
lwrist 5.63574
lhand -19.1373 20.9975
lfingers 7.12502
lthumb 7.17257 50.856
rfemur -18.3377 -4.91566 23.433
rtibia 35.0071
rfoot -15.8158 0.806522
rtoes 18.311
lfemur -8.12219 -1.09762 -19.1342
ltibia 26.9773
lfoot -12.8692 -14.041
ltoes 32.6288
246
root -3.97258 23.7739 -0.665977 -136.56 85.8786 -137.105
lowerback 6.00302 -0.463456 -1.80361
upperback 2.22995 -0.625467 2.33207
thorax -1.02116 -0.300776 3.45887
lowerneck -12.6517 -2.84791 -8.24465
upperneck 40.5359 -1.06094 3.40731
head 16.9799 -0.596048 3.03496
rclavicle 9.83984e-015 1.51076e-014
rhumerus -32.2674 -7.11532 -81.0792
rradius 29.5389
rwrist -7.14962
rhand -20.2896 14.3747
rfingers 7.12502
rthumb 6.06024 -15.5186
lclavicle 9.83984e-015 1.51076e-014
lhumerus -32.4583 -2.33383 87.7578
lradius 33.8038
lwrist 6.02981
lhand -19.5314 21.389
lfingers 7.12502
lthumb 6.79219 51.26
rfemur -18.0457 -4.64097 23.8197
rtibia 34.951
rfoot -15.8774 0.898038
rtoes 20.4711
lfemur -7.86411 -1.00299 -18.7507
ltibia 27.031
lfoot -13.3655 -13.8052
ltoes 30.8344
